<?xml version="1.0" standalone="yes"?>

<svg version="1.1" viewBox="0.0 0.0 502.0 216.0" fill="none" stroke="none" stroke-linecap="square" stroke-miterlimit="10" xmlns="http://www.w3.org/2000/svg" xmlns:xlink="http://www.w3.org/1999/xlink"><clipPath id="p.0"><path d="m0 0l502.0 0l0 216.0l-502.0 0l0 -216.0z" clip-rule="nonzero"></path></clipPath><g clip-path="url(#p.0)"><path fill="#000000" fill-opacity="0.0" d="m0 0l502.0 0l0 216.0l-502.0 0z" fill-rule="nonzero"></path><path fill="#000000" fill-opacity="0.0" d="m-5.7769027 9.905512l188.88188 0l0 226.17322l-188.88188 0z" fill-rule="nonzero"></path><path fill="#000000" d="m18.488997 199.79211l0 -186.375l26.625002 0l0 79.875l39.9375 -79.875l33.28125 0l-40.046875 73.21875l46.703125 113.15626l-33.28125 0l-33.28125 -86.53126l-13.3125 26.625008l0 59.90625l-26.625002 0zm115.408615 0l0 -186.375l26.625 0l0 186.375l-26.625 0z" fill-rule="nonzero"></path><path fill="#000000" d="m258.58914 201.6551l0 0c0 7.886307 -6.393112 14.279404 -14.279419 14.279404l-57.115906 0l0 0c-3.7871246 0 -7.4191437 -1.504425 -10.097061 -4.1823425c-2.6779022 -2.6779022 -4.1823425 -6.3099213 -4.1823425 -10.097061l0 -187.38463c0 -7.8862977 6.393112 -14.279405 14.279404 -14.279405l57.115906 0c7.886307 0 14.279419 6.393107 14.279419 14.279405z" fill-rule="nonzero"></path><path stroke="#000000" stroke-width="1.0" stroke-linejoin="round" stroke-linecap="butt" d="m258.58914 201.6551l0 0c0 7.886307 -6.393112 14.279404 -14.279419 14.279404l-57.115906 0l0 0c-3.7871246 0 -7.4191437 -1.504425 -10.097061 -4.1823425c-2.6779022 -2.6779022 -4.1823425 -6.3099213 -4.1823425 -10.097061l0 -187.38463c0 -7.8862977 6.393112 -14.279405 14.279404 -14.279405l57.115906 0c7.886307 0 14.279419 6.393107 14.279419 14.279405z" fill-rule="nonzero"></path><path fill="#ffffff" d="m249.52728 186.09067l-67.55234 0l0 -164.08119l67.55234 0z" fill-rule="nonzero"></path><path stroke="#000000" stroke-width="1.0" stroke-linejoin="round" stroke-linecap="butt" d="m249.52728 186.09067l-67.55234 0l0 -164.08119l67.55234 0z" fill-rule="nonzero"></path><path fill="#efefef" d="m222.72108 200.78984l0 0c0 5.372162 -3.1205597 9.727158 -6.9699707 9.727158l0 0c-1.8485565 0 -3.621399 -1.024826 -4.928528 -2.8490143c-1.3071289 -1.8242035 -2.0414581 -4.29834 -2.0414581 -6.8781433l0 0c0 -5.372162 3.1205597 -9.727158 6.969986 -9.727158l0 0c3.849411 0 6.9699707 4.3549957 6.9699707 9.727158z" fill-rule="nonzero"></path><path stroke="#000000" stroke-width="1.0" stroke-linejoin="round" stroke-linecap="butt" d="m222.72108 200.78984l0 0c0 5.372162 -3.1205597 9.727158 -6.9699707 9.727158l0 0c-1.8485565 0 -3.621399 -1.024826 -4.928528 -2.8490143c-1.3071289 -1.8242035 -2.0414581 -4.29834 -2.0414581 -6.8781433l0 0c0 -5.372162 3.1205597 -9.727158 6.969986 -9.727158l0 0c3.849411 0 6.9699707 4.3549957 6.9699707 9.727158z" fill-rule="nonzero"></path><path fill="#ffffff" d="m205.78592 10.597345l0 0c0 -0.71133995 0.5766449 -1.2879944 1.2879944 -1.2879944l17.3544 0c0.3415985 0 0.6692047 0.13569927 0.91075134 0.37724495c0.24153137 0.24154568 0.37724304 0.5691519 0.37724304 0.91074944l0 5.151823c0 0.71133995 -0.57666016 1.2879944 -1.2879944 1.2879944l-17.3544 0l0 0c-0.7113495 0 -1.2879944 -0.57665443 -1.2879944 -1.2879944z" fill-rule="nonzero"></path><path stroke="#000000" stroke-width="1.0" stroke-linejoin="round" stroke-linecap="butt" d="m205.78592 10.597345l0 0c0 -0.71133995 0.5766449 -1.2879944 1.2879944 -1.2879944l17.3544 0c0.3415985 0 0.6692047 0.13569927 0.91075134 0.37724495c0.24153137 0.24154568 0.37724304 0.5691519 0.37724304 0.91074944l0 5.151823c0 0.71133995 -0.57666016 1.2879944 -1.2879944 1.2879944l-17.3544 0l0 0c-0.7113495 0 -1.2879944 -0.57665443 -1.2879944 -1.2879944z" fill-rule="nonzero"></path><path fill="#000000" fill-opacity="0.0" d="m242.51837 15.827162l255.05511 0l0 214.3307l-255.05511 0z" fill-rule="nonzero"></path><path fill="#000000" d="m269.0435 199.79251l0 -186.375l26.625 0l0 102.4375l33.28125 -49.1875l26.625 0l-29.859375 46.484375l29.859375 86.640625l-26.625 0l-19.96875 -64.375l-13.3125 17.78125l0 46.59375l-26.625 0zm101.24234 -153.09375l0 -26.624998l26.625 0l0 26.624998l-26.625 0zm0 153.09375l0 -133.125l26.625 0l0 133.125l-26.625 0zm89.11328 1.875q-15.703125 0 -22.828125 -8.0q-7.125 -8.015625 -7.34375 -24.25l0 -82.78125l-13.3125 0l0 -19.96875l13.3125 0l0 -46.59375l26.625 0l0 46.59375l19.96875 0l0 19.96875l-19.96875 0l0 77.6875q0 8.015625 2.1875 11.765625q2.1875 3.734375 8.84375 3.734375q2.90625 0 8.9375 -1.046875l0 21.640625q-9.984375 1.25 -16.421875 1.25z" fill-rule="nonzero"></path><path fill="#000000" fill-opacity="0.0" d="m248.39633 -33.39895l-65.29135 0l0 209.00787l65.29135 0z" fill-rule="nonzero"></path><path fill="#000000" d="m206.2456 49.46354l0 -21.531252l18.71875 0l0 21.531252l-18.71875 0zm0 130.9375l0 -110.45312l18.71875 0l0 110.45312l-18.71875 0z" fill-rule="nonzero"></path></g></svg>

