<?xml version="1.0" standalone="yes"?>

<svg version="1.1" viewBox="0.0 0.0 502.0 216.0" fill="none" stroke="none" stroke-linecap="square" stroke-miterlimit="10" xmlns="http://www.w3.org/2000/svg" xmlns:xlink="http://www.w3.org/1999/xlink"><clipPath id="p.0"><path d="m0 0l502.0 0l0 216.0l-502.0 0l0 -216.0z" clip-rule="nonzero"></path></clipPath><g clip-path="url(#p.0)"><path fill="#000000" fill-opacity="0.0" d="m0 0l502.0 0l0 216.0l-502.0 0z" fill-rule="nonzero"></path><path fill="#000000" fill-opacity="0.0" d="m8.673228 15.827162l170.80315 0l0 214.34465l-170.80315 0z" fill-rule="nonzero"></path><path fill="#000000" d="m30.936008 199.79947l0 -186.375l26.625 0l0 102.4375l33.281246 -49.1875l26.625 0l-29.859375 46.484375l29.859375 86.640625l-26.625 0l-19.96875 -64.375l-13.312496 17.78125l0 46.59375l-26.625 0zm100.19548 0l0 -186.375l26.625 0l0 186.375l-26.625 0z" fill-rule="nonzero"></path><path fill="#000000" d="m238.27245 186.00716l0 0c0 5.412018 -4.387314 9.799332 -9.799347 9.799332l-39.19615 0l0 0c-2.5989532 0 -5.091446 -1.0324249 -6.929184 -2.870163c-1.8377228 -1.8377228 -2.8701477 -4.3302307 -2.8701477 -6.9291687l0 -126.013664c0 -5.4120255 4.387314 -9.7993355 9.799332 -9.7993355l39.19615 0c5.412033 0 9.799347 4.38731 9.799347 9.7993355z" fill-rule="nonzero"></path><path stroke="#000000" stroke-width="1.0" stroke-linejoin="round" stroke-linecap="butt" d="m238.27245 186.00716l0 0c0 5.412018 -4.387314 9.799332 -9.799347 9.799332l-39.19615 0l0 0c-2.5989532 0 -5.091446 -1.0324249 -6.929184 -2.870163c-1.8377228 -1.8377228 -2.8701477 -4.3302307 -2.8701477 -6.9291687l0 -126.013664c0 -5.4120255 4.387314 -9.7993355 9.799332 -9.7993355l39.19615 0c5.412033 0 9.799347 4.38731 9.799347 9.7993355z" fill-rule="nonzero"></path><path fill="#ffffff" d="m232.05368 175.68256l-46.35823 0l0 -110.64123l46.35823 0z" fill-rule="nonzero"></path><path stroke="#000000" stroke-width="1.0" stroke-linejoin="round" stroke-linecap="butt" d="m232.05368 175.68256l-46.35823 0l0 -110.64123l46.35823 0z" fill-rule="nonzero"></path><path fill="#efefef" d="m213.65776 185.59431l0 0c0 3.6224976 -2.14151 6.5590973 -4.783188 6.5590973l0 0c-1.2685852 0 -2.4852142 -0.69104004 -3.3822327 -1.9211121c-0.8970337 -1.230072 -1.4009705 -2.898407 -1.4009705 -4.637985l0 0c0 -3.6224823 2.14151 -6.5590973 4.783203 -6.5590973l0 0c2.6416779 0 4.783188 2.936615 4.783188 6.5590973z" fill-rule="nonzero"></path><path stroke="#000000" stroke-width="1.0" stroke-linejoin="round" stroke-linecap="butt" d="m213.65776 185.59431l0 0c0 3.6224976 -2.14151 6.5590973 -4.783188 6.5590973l0 0c-1.2685852 0 -2.4852142 -0.69104004 -3.3822327 -1.9211121c-0.8970337 -1.230072 -1.4009705 -2.898407 -1.4009705 -4.637985l0 0c0 -3.6224823 2.14151 -6.5590973 4.783203 -6.5590973l0 0c2.6416779 0 4.783188 2.936615 4.783188 6.5590973z" fill-rule="nonzero"></path><path fill="#ffffff" d="m202.03589 57.346046l0 0c0 -0.47966385 0.38883972 -0.8685074 0.86849976 -0.8685074l11.940353 0c0.23034668 0 0.45124817 0.09150314 0.6141205 0.25437927c0.16288757 0.16287613 0.25437927 0.38378525 0.25437927 0.6141281l0 3.4739113c0 0.47966385 -0.38883972 0.8685074 -0.86849976 0.8685074l-11.940353 0l0 0c-0.47966003 0 -0.86849976 -0.38884354 -0.86849976 -0.8685074z" fill-rule="nonzero"></path><path stroke="#000000" stroke-width="1.0" stroke-linejoin="round" stroke-linecap="butt" d="m202.03589 57.346046l0 0c0 -0.47966385 0.38883972 -0.8685074 0.86849976 -0.8685074l11.940353 0c0.23034668 0 0.45124817 0.09150314 0.6141205 0.25437927c0.16288757 0.16287613 0.25437927 0.38378525 0.25437927 0.6141281l0 3.4739113c0 0.47966385 -0.38883972 0.8685074 -0.86849976 0.8685074l-11.940353 0l0 0c-0.47966003 0 -0.86849976 -0.38884354 -0.86849976 -0.8685074z" fill-rule="nonzero"></path><path fill="#000000" fill-opacity="0.0" d="m238.27165 15.827162l255.05513 0l0 214.34465l-255.05513 0z" fill-rule="nonzero"></path><path fill="#000000" d="m264.79675 199.79947l0 -186.375l26.625 0l0 102.4375l33.28125 -49.1875l26.625 0l-29.859375 46.484375l29.859375 86.640625l-26.625 0l-19.96875 -64.375l-13.3125 17.78125l0 46.59375l-26.625 0zm101.24237 -153.09375l0 -26.624998l26.625 0l0 26.624998l-26.625 0zm0 153.09375l0 -133.125l26.625 0l0 133.125l-26.625 0zm89.11328 1.875q-15.703125 0 -22.828125 -8.0q-7.125 -8.015625 -7.34375 -24.25l0 -82.78125l-13.3125 0l0 -19.96875l13.3125 0l0 -46.59375l26.625 0l0 46.59375l19.96875 0l0 19.96875l-19.96875 0l0 77.6875q0 8.015625 2.1875 11.765625q2.1875 3.734375 8.84375 3.734375q2.90625 0 8.9375 -1.046875l0 21.640625q-9.984375 1.25 -16.421875 1.25z" fill-rule="nonzero"></path></g></svg>

